<?xml version="1.0" encoding="UTF-8"?>
<svg width="256px" height="49px" viewBox="0 0 256 49" version="1.1" xmlns="http://www.w3.org/2000/svg" xmlns:xlink="http://www.w3.org/1999/xlink">
    <!-- Generator: Sketch 62 (91390) - https://sketch.com -->
    <title>Group 2</title>
    <desc>Created with Sketch.</desc>
    <g id="Page-1" stroke="none" stroke-width="1" fill="none" fill-rule="evenodd">
        <g id="Artboard" transform="translate(-239.000000, -561.000000)">
            <g id="Group-2" transform="translate(239.000000, 561.000000)">
                <path d="M82.513,38.01 L84.067,33.348 L94.39,33.348 L95.944,38.01 L101.494,38.01 L92.392,12.11 L86.065,12.11 L77,38.01 L82.513,38.01 Z M92.799,28.575 L85.695,28.575 L89.247,17.993 L92.799,28.575 Z M111.817,38.528 C114.407,38.528 116.405,37.6276667 117.811,35.827 L117.811,35.827 L117.811,38.01 L122.584,38.01 L122.584,12.11 L117.811,12.11 L117.811,21.693 C116.405,19.8923333 114.407,18.992 111.817,18.992 C109.325667,18.992 107.198167,19.9355 105.4345,21.8225 C103.670833,23.7095 102.789,26.022 102.789,28.76 C102.789,31.498 103.670833,33.8105 105.4345,35.6975 C107.198167,37.5845 109.325667,38.528 111.817,38.528 Z M112.705,33.977 C111.225,33.977 109.991667,33.496 109.005,32.534 C108.043,31.5473333 107.562,30.2893333 107.562,28.76 C107.562,27.2306667 108.049167,25.9788333 109.0235,25.0045 C109.997833,24.0301667 111.225,23.543 112.705,23.543 C114.185,23.543 115.406,24.0301667 116.368,25.0045 C117.33,25.9788333 117.811,27.2306667 117.811,28.76 C117.811,30.2893333 117.33,31.5411667 116.368,32.5155 C115.406,33.4898333 114.185,33.977 112.705,33.977 Z M131.723,38.01 L131.723,27.613 C131.723,26.2563333 132.0375,25.2203333 132.6665,24.505 C133.2955,23.7896667 134.140333,23.432 135.201,23.432 C136.187667,23.432 136.952333,23.7403333 137.495,24.357 C138.037667,24.9736667 138.309,25.837 138.309,26.947 L138.309,26.947 L138.309,38.01 L143.082,38.01 L143.082,27.613 C143.082,26.2563333 143.384167,25.2203333 143.9885,24.505 C144.592833,23.7896667 145.437667,23.432 146.523,23.432 C147.509667,23.432 148.274333,23.7403333 148.817,24.357 C149.359667,24.9736667 149.631,25.837 149.631,26.947 L149.631,26.947 L149.631,38.01 L154.404,38.01 L154.404,26.614 C154.404,24.2953333 153.768833,22.4453333 152.4985,21.064 C151.228167,19.6826667 149.532333,18.992 147.411,18.992 C144.969,18.992 143.131333,19.88 141.898,21.656 C140.812667,19.88 139.135333,18.992 136.866,18.992 C134.547333,18.992 132.833,19.8183333 131.723,21.471 L131.723,21.471 L131.723,19.51 L126.95,19.51 L126.95,38.01 L131.723,38.01 Z M160.842,17.29 C161.656,17.29 162.352833,17.0001667 162.9325,16.4205 C163.512167,15.8408333 163.802,15.1563333 163.802,14.367 C163.802,13.5776667 163.512167,12.887 162.9325,12.295 C162.352833,11.703 161.656,11.407 160.842,11.407 C160.052667,11.407 159.368167,11.703 158.7885,12.295 C158.208833,12.887 157.919,13.5776667 157.919,14.367 C157.919,15.1563333 158.208833,15.8408333 158.7885,16.4205 C159.368167,17.0001667 160.052667,17.29 160.842,17.29 Z M163.247,38.01 L163.247,19.51 L158.474,19.51 L158.474,38.01 L163.247,38.01 Z M172.386,38.01 L172.386,28.02 C172.386,26.4906667 172.756,25.3436667 173.496,24.579 C174.236,23.8143333 175.222667,23.432 176.456,23.432 C177.566,23.432 178.454,23.7588333 179.12,24.4125 C179.786,25.0661667 180.119,26.0096667 180.119,27.243 L180.119,27.243 L180.119,38.01 L184.892,38.01 L184.892,26.651 C184.892,24.2583333 184.232167,22.3836667 182.9125,21.027 C181.592833,19.6703333 179.921667,18.992 177.899,18.992 C175.383,18.992 173.545333,19.8553333 172.386,21.582 L172.386,21.582 L172.386,19.51 L167.613,19.51 L167.613,38.01 L172.386,38.01 Z M194.29,38.01 L194.29,29.5 L198.841,29.5 C201.332333,29.5 203.429,28.6613333 205.131,26.984 C206.833,25.3066667 207.684,23.247 207.684,20.805 C207.684,18.363 206.833,16.3033333 205.131,14.626 C203.429,12.9486667 201.332333,12.11 198.841,12.11 L198.841,12.11 L189.184,12.11 L189.184,38.01 L194.29,38.01 Z M198.841,24.727 L194.29,24.727 L194.29,16.883 L198.841,16.883 C199.926333,16.883 200.826667,17.253 201.542,17.993 C202.257333,18.733 202.615,19.6703333 202.615,20.805 C202.615,21.915 202.257333,22.8461667 201.542,23.5985 C200.826667,24.3508333 199.926333,24.727 198.841,24.727 L198.841,24.727 Z M215.565,38.01 L215.565,11 L210.792,11 L210.792,38.01 L215.565,38.01 Z M226.628,38.528 C229.144,38.528 230.981667,37.6646667 232.141,35.938 L232.141,35.938 L232.141,38.01 L236.914,38.01 L236.914,19.51 L232.141,19.51 L232.141,29.5 C232.141,31.0293333 231.771,32.1763333 231.031,32.941 C230.291,33.7056667 229.304333,34.088 228.071,34.088 C226.961,34.088 226.073,33.7611667 225.407,33.1075 C224.741,32.4538333 224.408,31.5103333 224.408,30.277 L224.408,30.277 L224.408,19.51 L219.635,19.51 L219.635,30.869 C219.635,33.2616667 220.294833,35.1363333 221.6145,36.493 C222.934167,37.8496667 224.605333,38.528 226.628,38.528 Z M247.792,38.528 C249.913333,38.528 251.683167,38.0161667 253.1015,36.9925 C254.519833,35.9688333 255.229,34.5073333 255.229,32.608 C255.229,31.35 254.902167,30.3016667 254.2485,29.463 C253.594833,28.6243333 252.799333,28.0261667 251.862,27.6685 C250.924667,27.3108333 249.987333,27.0148333 249.05,26.7805 C248.112667,26.5461667 247.317167,26.2748333 246.6635,25.9665 C246.009833,25.6581667 245.683,25.2573333 245.683,24.764 C245.683,24.2953333 245.8865,23.9253333 246.2935,23.654 C246.7005,23.3826667 247.212333,23.247 247.829,23.247 C249.210333,23.247 250.197,23.876 250.789,25.134 L250.789,25.134 L254.859,22.914 C254.143667,21.656 253.169333,20.6878333 251.936,20.0095 C250.702667,19.3311667 249.333667,18.992 247.829,18.992 C245.831,18.992 244.159833,19.5161667 242.8155,20.5645 C241.471167,21.6128333 240.799,23.0496667 240.799,24.875 C240.799,26.0836667 241.125833,27.0888333 241.7795,27.8905 C242.433167,28.6921667 243.228667,29.278 244.166,29.648 C245.103333,30.018 246.040667,30.3263333 246.978,30.573 C247.915333,30.8196667 248.710833,31.0971667 249.3645,31.4055 C250.018167,31.7138333 250.345,32.1146667 250.345,32.608 C250.345,33.6686667 249.494,34.199 247.792,34.199 C245.917333,34.199 244.708667,33.3973333 244.166,31.794 L244.166,31.794 L240.022,34.125 C241.403333,37.0603333 243.993333,38.528 247.792,38.528 Z" id="AdminPlus" fill="#28308A" fill-rule="nonzero"></path>
                <g id="Group" transform="translate(0.000000, 0.000000)">
                    <path d="M35.2287582,17.3663039 C37.1293419,10.7661444 38.4453995,6.11213286 39.1769308,3.40426927 C40.2742278,-0.657526123 44.1128852,-1.58819614 44.1128852,3.40426927 C44.1128852,4.54729149 44.1128852,9.20130303 44.1128852,17.3663039 L35.2287582,17.3663039 Z" id="Path-12" fill="#28308A"></path>
                    <path d="M11.5294118,48.7426219 L27.1950226,48.7426219 C34.4154243,21.2576691 38.3743819,6.29853784 39.0718954,3.86522813 C39.769409,1.43191841 40.8353883,0.144259449 42.2698334,0.00225123498 C35.1993188,0.00225123498 30.6950625,0.00225123498 28.7570646,0.00225123498 C25.8500678,0.00225123498 23.9141371,0.857244291 23.1018409,3.86421989 C22.5603102,5.8688703 18.7028338,20.8283376 11.5294118,48.7426219 Z" id="Path-5" fill="#F94300"></path>
                    <polygon id="Path-13" fill="#28308A" points="44.1128852 48.7426219 31.6823055 48.7426219 33.2923043 34.4931249 44.1128852 34.4931249"></polygon>
                    <polygon id="Path-14" fill="#F94300" points="55.8511089 32.8344862 59.9955969 17.3663039 4.14448798 17.3663039 4.55118876e-15 32.8344862"></polygon>
                </g>
            </g>
        </g>
    </g>
</svg>